<svg width="11" height="4" viewBox="0 0 11 4" fill="none" xmlns="http://www.w3.org/2000/svg">
<path d="M9.33303 3.33317C8.59665 3.33317 7.99969 2.73622 7.99969 1.99984C7.99969 1.26346 8.59665 0.666504 9.33303 0.666504C10.0694 0.666504 10.6664 1.26346 10.6664 1.99984C10.6664 2.35346 10.5259 2.6926 10.2758 2.94265C10.0258 3.19269 9.68665 3.33317 9.33303 3.33317ZM5.33303 3.33317C4.59665 3.33317 3.99969 2.73622 3.99969 1.99984C3.99969 1.26346 4.59665 0.666504 5.33303 0.666504C6.06941 0.666504 6.66636 1.26346 6.66636 1.99984C6.66636 2.35346 6.52589 2.6926 6.27584 2.94265C6.02579 3.19269 5.68665 3.33317 5.33303 3.33317ZM1.33303 3.33317C0.596648 3.33317 -0.000305176 2.73622 -0.000305176 1.99984C-0.000305176 1.26346 0.596648 0.666504 1.33303 0.666504C2.06941 0.666504 2.66636 1.26346 2.66636 1.99984C2.66636 2.35346 2.52589 2.6926 2.27584 2.94265C2.02579 3.19269 1.68665 3.33317 1.33303 3.33317Z" fill="white"/>
</svg>
